<?xml version="1.0" encoding="UTF-8" standalone="no"?>
<!-- Created with Inkscape (http://www.inkscape.org/) -->

<svg
   width="135.46666mm"
   height="135.46666mm"
   viewBox="0 0 135.46666 135.46666"
   version="1.1"
   id="svg1"
   inkscape:version="1.4.2 (f4327f4, 2025-05-13)"
   sodipodi:docname="LOGOfav.svg"
   xmlns:inkscape="http://www.inkscape.org/namespaces/inkscape"
   xmlns:sodipodi="http://sodipodi.sourceforge.net/DTD/sodipodi-0.dtd"
   xmlns="http://www.w3.org/2000/svg"
   xmlns:svg="http://www.w3.org/2000/svg">
  <sodipodi:namedview
     id="namedview1"
     pagecolor="#ffffff"
     bordercolor="#999999"
     borderopacity="1"
     inkscape:showpageshadow="2"
     inkscape:pageopacity="0"
     inkscape:pagecheckerboard="0"
     inkscape:deskcolor="#d1d1d1"
     inkscape:document-units="mm"
     inkscape:zoom="0.76167929"
     inkscape:cx="396.49233"
     inkscape:cy="246.1666"
     inkscape:window-width="1920"
     inkscape:window-height="1057"
     inkscape:window-x="-8"
     inkscape:window-y="-8"
     inkscape:window-maximized="1"
     inkscape:current-layer="layer1" />
  <defs
     id="defs1" />
  <g
     inkscape:label="Vrstva 1"
     inkscape:groupmode="layer"
     id="layer1">
    <polyline
       class="st0"
       points="264.7,156.5 288.4,162.3 292.1,165.7 267.7,162.6 257.6,155.4 "
       id="polyline1"
       style="fill:#294998"
       transform="matrix(0.34714827,0,0,0.33642175,-0.58975583,7.3770552)" />
    <polygon
       class="st0"
       points="206,73.6 217.1,63.3 231,63 247.4,54.8 250.1,57.1 245.9,71.3 250.1,70.5 258.9,60.2 274.2,40.7 289.9,30.3 309.1,26.1 337.4,26.1 364.6,26.1 378.4,21.7 385.5,17.1 386.2,21.9 384.3,36.8 380.7,59.6 374.2,83.6 361.9,115.5 348.5,137.9 343.3,144.8 329.4,154 319.6,158.2 307.7,160.3 298.9,160.9 291.1,160.5 281.9,160.1 275.4,159 270.4,157.7 257.9,155.1 267.3,162.2 276.6,163 290.1,166.3 305.4,167.2 319.6,166.5 331.9,162.6 339.3,158 335.9,167 329.7,177.9 321.9,186.4 315.4,194.4 305.8,203.6 289.9,212.6 259.7,217.4 267.5,222.6 292,223.3 280.5,234.8 257.2,250.3 221.2,258.6 177.5,254 196.6,266.8 205.5,272.2 187.9,277.7 163.9,280.6 143.8,275.4 112,263.2 83.1,253.6 104.2,183.5 120.6,138.3 145.9,105.4 172,87.8 180.3,82.8 175.8,95.4 167.2,111.8 169.7,119.9 177.7,110.4 187.7,96.2 "
       id="polygon1"
       style="fill:#294998"
       transform="matrix(0.34714827,0,0,0.33642175,-0.58975583,7.3770552)" />
    <g
       id="g2"
       transform="matrix(0.34714827,0,0,0.33642175,-183.5369,-81.248069)">
	<path
   id="path1"
   class="st1"
   d="m 784,418.7 c 16.8,4.7 34.9,8.2 53,7 1.5,-0.1 3,-0.3 3,-0.3 0,0 4.1,-0.5 8.1,-1.6 10.5,-2.9 18,-8.7 18,-8.7 3.2,-2.3 6.2,-5.4 8.8,-9.1 17.1,-24.1 28.4,-53.4 35.2,-86.5 2.7,-13.1 4.4,-26.4 5,-40.3 0.1,-1.1 0,-2.3 0.1,-3.6 -0.5,0.3 -0.7,0.1 -0.8,0.3 -8.9,9.4 -19.7,11 -31,11 -15.6,0 -31.1,-0.5 -46.6,0 -22.9,0.6 -40.2,15.1 -54.7,36.5 -2.3,3.4 -4.6,7 -7.1,10.2 4.6,-12.3 11.5,-22.5 16.5,-34.8 -2.7,2.9 -5.3,5.8 -8.1,8.4 -7.1,6.7 -14.9,11.6 -23.6,13.7 -18.9,4.6 -34,17.5 -46.8,35.6 -5.4,7.6 -10.5,15.9 -15.8,23.9 3.5,-14 10,-25 17.7,-34.9 -0.2,-0.3 -0.4,-0.7 -0.4,-1 -3.9,1.2 -7.8,2.1 -11.7,3.5 -34.6,11.7 -56.5,42.7 -70.2,85.5 -4.4,13.6 -7.2,28.1 -10.9,42.1 -3.2,12.3 -7,24.3 -13,34.4 -3,5.1 -6.7,9.6 -10.4,13.4 -17.9,18.4 -36.4,35.9 -52.7,56.9 -3.9,5.1 -7.7,10.3 -11.5,15.6 -0.9,1 -1.8,2.4 -1.9,3.9 -0.1,2 0.2,4.4 1,6.1 1,2.2 2.8,2.2 4.1,1.1 1.4,-1.1 2.6,-2.4 3.7,-3.8 15.1,-22.2 32.6,-41 50.5,-59 4.9,-4.9 9.9,-9.6 14.8,-14.5 3.6,-3.6 7.8,-4.6 12.6,-4.5 12.6,0.7 25.2,4.8 37.4,10.5 28.6,13.2 56.4,14.7 82.7,-0.2 0.8,-0.5 1.6,-1 2.5,-1.5 -4.7,-1.6 -9.4,-3 -14.1,-4.9 -4.5,-1.8 -8.9,-4.3 -13.3,-6.5 0.1,-0.4 0.1,-0.7 0.2,-1.1 5.5,0.6 10.9,1.1 16.4,1.9 35.5,4.6 66.3,-6.4 91.7,-37.3 1.2,-1.4 2.4,-2.9 3.5,-4.8 -10.2,4.5 -20.7,5.4 -31.7,1.6 1.6,-0.1 3.2,0 4.8,0 17.4,-0.4 31.9,-9.7 44.7,-23.7 9.2,-10 17.1,-21.8 24.5,-34.2 2.7,-4.5 5.5,-8.9 8.6,-14 -3.8,2.9 -6.9,5.7 -10.2,8 -5.2,3.6 -10.6,6.2 -16.2,7.9 -1.4,0.4 -2.7,0.7 -2.9,0.8 -1.7,0.4 -5.5,1.2 -10.7,1.4 -2.6,0.1 -4.7,0 -5.7,0 -9.8,-0.5 -35.4,-3 -36.8,-3.1 5.4,1.3 11.1,2.9 16.6,4.2 5.7,1.1 11.3,2.1 17,2.7 5.7,0.4 11.6,0.5 17.1,-0.4 5.5,-0.9 10.8,-2.9 16.8,-4.6 -2.9,4.4 -5.5,8.4 -8.2,12.2 -7,9.9 -14.5,18.9 -23.2,26.2 -11.3,9.5 -24,12.4 -37.6,11.3 -10.7,-0.8 -21.5,-2.1 -32.3,-4.6 -7.3,-1.5 -14.4,-5.2 -21.5,-7.9 -0.6,-0.3 -1.1,-0.4 -1.7,-0.4 17.9,10.7 36,19.5 54.9,24.7 C 772,487 752.6,478.1 733.3,468 c 8.6,4.9 17,9.8 25.7,14.5 8.7,4.7 17.6,7.8 26.7,9 9,1.3 17.9,1.1 26.6,-1.5 0.1,0.3 0.2,0.5 0.3,0.9 -3.1,2.8 -6.3,5.6 -9.4,8.3 -17,14.5 -36.5,19.9 -57.2,19.9 -20.3,0.2 -40.5,-4 -60.5,-11.7 -5,-1.9 -9.9,-4.5 -14.9,-6.8 -0.8,-0.4 -1.7,-0.8 -2.4,-0.9 18.5,16.4 38.2,27.7 59.3,35.1 -0.8,0.5 -1.6,1 -2.4,1.3 -12.4,5.4 -25.5,6.7 -39.1,4 -10.8,-2.2 -21.4,-6.3 -31.9,-11.2 -11.3,-5.2 -22.8,-8.5 -34.3,-8.5 -0.8,-0.1 -1.6,-0.3 -2.2,-0.4 -0.1,-0.3 -0.2,-0.7 -0.3,-1 2.4,-1.1 4.7,-2.9 7.1,-3.1 7.7,-0.5 15.5,-1.2 23.3,-0.3 8.1,0.9 16.2,3.2 24.3,4.4 -7.5,-2.2 -15.1,-4.9 -22.6,-6.4 -7.5,-1.5 -15.1,-1.6 -22.6,-2.3 0.2,-0.2 0.7,-0.6 1.1,-1.1 30.4,-23 62.4,-41.6 94.5,-60.1 24.4,-14 48.6,-28.7 72.3,-44.3 20.6,-13.6 39.4,-31 56.9,-50.9 0.3,-0.4 0.6,-0.8 0.7,-1.4 -4.1,4.2 -8.1,8.4 -12.2,12.5 -23.6,23.6 -49.7,41.4 -77.1,56.4 -31.5,17.3 -63.3,33.7 -94.8,51.2 -18.3,10 -35.5,22.9 -52.2,36.8 -0.8,0.7 -1.5,1.3 -2.8,2.4 0.6,-1.9 0.8,-2.8 1.2,-3.6 7.9,-17.1 12.9,-36.2 17.5,-55.6 6.7,-28 17.3,-52.6 32.9,-72.2 11,-13.9 23.9,-23.6 38.6,-28.8 0.4,-0.1 0.7,-0.1 1.5,-0.1 -16.6,27.6 -21.5,61.8 -23.8,97.7 3.8,-22.4 9.1,-43.8 18.2,-62.5 0.6,-1.2 1.2,-2.3 1.9,-3.3 -5.4,16.9 -10.1,34.1 -12.9,52 3.2,-11.4 6.2,-23.1 9.9,-34.4 5.4,-16.7 11.9,-32.4 21.2,-45.5 10.4,-14.9 23.2,-24.9 38.4,-29.6 5.7,-1.8 11.2,-4.3 17.1,-6.5 -11.7,28.8 -20.6,59.1 -25.3,92.2 6.7,-27.3 16,-52.5 28.4,-75.4 -7.6,20.1 -14.8,40.4 -19.7,62.8 3,-8.7 5.4,-17.3 8.7,-25.3 6.6,-15.9 13.3,-31.4 20.3,-46.8 9.8,-21.4 24.9,-31.8 43.4,-35.1 12.1,-2.1 24.5,-1.9 36.8,-1.5 7.8,0.2 15.8,0.5 23.7,0.4 7.3,-0.1 14.1,-2.4 20.7,-7.9 -0.3,2.7 -0.4,4.7 -0.6,6.5 -4.3,36.9 -14,70.3 -30.1,99.2 -3.5,6.3 -7.6,11.7 -11.7,17.2 -5.5,7.3 -13.2,9.6 -20.6,12.2 -13.5,4.6 -27.5,5.2 -41.8,3.6 -8.3,-1.3 -16.3,-2.8 -23.1,-3.8 z"
   style="stroke:#000000;stroke-miterlimit:10" />

	<path
   id="path2"
   class="st1"
   d="m 636.8,490.8 c 10.4,-25.4 23.3,-48.2 37.9,-69 -12.2,10.1 -37.2,55.5 -37.9,69 z"
   style="stroke:#000000;stroke-miterlimit:10" />

</g>
    <path
       class="st1"
       d="m 98.83351,61.675524 0.694304,0.302779 c 0,0 0,0 0,0 L 103.52,63.021212 c 0,0 0,0 0.0347,0 l 7.9497,0.10092 c 0,0 0.0348,0 0.0348,0 l 1.00672,-0.773771 c 0,0 0,0 0.0347,-0.03365 l 1.21502,-1.984888 c 0.0347,-0.06728 0,-0.10092 -0.0694,-0.10092 z"
       id="path3"
       style="stroke:#000000;stroke-width:0.341743;stroke-miterlimit:10" />
    <polygon
       class="st1"
       points="276.2,159.8 295.1,164.1 294.7,164.9 294.3,164.7 "
       id="polygon3"
       style="stroke:#000000;stroke-miterlimit:10"
       transform="matrix(0.34714827,0,0,0.33642175,-0.58975583,7.3770552)" />
  </g>
</svg>
